<svg xmlns="http://www.w3.org/2000/svg" viewBox="0 0 512 512">
    <path d="M 256.00065,0 C 114.64144,0 0,114.69346 0,255.9673 0,397.24115 114.7084,512 256.00065,512 397.2929,512 512,397.30785 512,256.034 512,114.76015 397.35987,0 256.00065,0 Z m -94.41804,70.100766 h 39.90978 l 14.932,7.633065 v 66.887739 l 155.28781,-0.33478 15.26812,15.26613 -95.02098,95.47677 c 5.62491,-2.34341 11.65211,-3.6825 17.94665,-4.35205 10.31233,0 21.96365,3.34799 34.55273,9.97647 12.99085,6.29372 22.96783,15.2651 29.932,26.58039 6.96417,11.31531 11.65185,21.96053 13.66075,32.27152 2.00889,10.31098 3.34815,19.28365 3.34815,27.586 0,18.27856 -4.01805,35.21804 -11.65185,50.88537 -7.63379,15.60038 -19.28512,27.58496 -35.22235,35.21777 -15.66938,7.6328 -32.61106,11.31556 -50.892,11.31556 -26.91919,0 -46.53965,-6.29424 -58.86087,-19.2834 -12.32122,-12.98915 -18.28016,-26.58064 -18.28016,-41.57844 0,-5.2894 1.00445,-9.97647 3.34816,-13.65896 2.0089,-3.6825 4.95423,-6.62876 8.6372,-8.63738 3.68298,-2.00863 8.30369,-3.34773 13.66075,-3.34773 5.35705,0 9.97777,1.00432 13.66074,3.34773 3.68297,2.00862 6.62961,4.95488 8.63851,8.63738 2.00889,3.68249 3.34816,8.30261 3.34816,13.65896 0,6.62849 -1.67408,11.98537 -4.68742,15.93567 -3.01335,4.01727 -6.96443,6.96223 -11.31704,8.30131 3.68298,4.95463 9.64322,8.63739 17.61183,10.98079 7.96862,2.34341 15.93645,3.34773 23.97203,3.34773 11.31677,0 21.29506,-3.01322 30.26813,-8.97216 8.97306,-5.95895 15.60163,-14.93032 19.95423,-26.58039 4.35261,-11.65006 6.2948,-24.90679 6.2948,-39.90457 0,-16.26993 -2.34397,-29.92837 -6.96443,-41.24367 -4.68742,-11.65007 -11.31599,-20.28798 -20.28905,-25.57738 -8.97306,-5.62418 -18.61654,-8.30261 -29.26368,-8.30261 -6.96417,0 -15.26708,3.01321 -25.5794,8.63738 l -18.74969,8.97216 v -9.30693 L 333.81131,166.91792 H 216.49239 v 117.37032 c 0,9.64145 2.00785,17.60954 6.29349,23.97021 4.35261,6.29372 10.98248,9.30693 19.62073,9.30693 6.96417,0 13.32619,-2.34367 19.62073,-6.96352 6.29453,-4.68681 11.6508,-10.3115 16.27126,-16.60522 0.66963,-1.33909 1.33926,-2.3434 2.00889,-2.67818 1.00445,-0.66954 1.67408,-1.00431 2.67853,-1.00431 1.67408,0 3.34842,0.66954 5.62517,2.3434 2.00889,2.34341 3.01334,4.95489 3.01334,7.96784 0,1.33909 -0.66963,3.34798 -1.00445,5.9592 -4.68742,10.98053 -11.31729,19.28236 -19.95554,24.90654 -8.63825,5.62416 -17.9456,8.63737 -28.25793,8.63737 -25.57992,0 -42.92338,-4.95514 -52.90089,-14.93135 -9.64269,-9.97621 -14.59849,-23.63466 -14.59849,-40.57413 v -117.7051 h -59.86401 v -21.96158 h 60.19883 V 95.07529 L 161.58261,81.416326 Z" />
</svg>
